<svg width="24" height="25" viewBox="0 0 24 25" fill="none" xmlns="http://www.w3.org/2000/svg">
<path fill-rule="evenodd" clip-rule="evenodd" d="M23.0986 17.1965C22.5319 16.7117 22.2056 16.0032 22.2056 15.2574V9.10853C22.2056 4.0695 17.6386 0 12 0C6.36139 0 1.79437 4.0695 1.79437 9.10853V15.2574C1.79441 16.0032 1.46814 16.7117 0.901372 17.1965C-1.02494 18.9187 0.340062 21.8528 3.07007 21.8528H7.91775C8.53626 23.5755 10.1696 24.7245 12 24.7245C13.8304 24.7245 15.4637 23.5755 16.0823 21.8528H20.9299C23.6599 21.8528 25.0249 18.9187 23.0986 17.1965ZM12.0002 22.8132C11.2409 22.8103 10.5254 22.4573 10.0611 21.8564H13.8882C13.4387 22.4478 12.7429 22.8004 12.0002 22.8132ZM20.9435 19.9393C21.4073 19.9813 21.8488 19.7326 22.0533 19.3142C22.1526 19.0621 22.0622 18.775 21.8365 18.6253C20.8753 17.7679 20.3196 16.5454 20.3056 15.2574V9.10853C20.3056 5.14109 16.5806 1.91356 12.0135 1.91356C7.44652 1.91356 3.72146 5.14109 3.72146 9.10853V15.2574C3.70747 16.5454 3.15178 17.7679 2.19061 18.6253C1.96012 18.7712 1.86413 19.0591 1.96099 19.3142C2.16548 19.7326 2.60705 19.9813 3.07085 19.9393H20.9435Z" fill="#FF544A"/>
</svg>
