<svg width="40" height="40" viewBox="0 0 40 40" fill="none" xmlns="http://www.w3.org/2000/svg">
<path fill-rule="evenodd" clip-rule="evenodd" d="M33.4987 10.7859L27.9987 5.28594C26.7474 4.03602 25.0507 3.33455 23.282 3.33594H15.4987C13.7301 3.33455 12.0333 4.03602 10.782 5.28594L5.28203 10.7859C4.03211 12.0373 3.33064 13.734 3.33203 15.5026V23.2859C3.33506 25.0488 4.03619 26.7387 5.28203 27.9859L10.782 33.5026C12.0333 34.7525 13.7301 35.454 15.4987 35.4526H23.282C25.0507 35.454 26.7474 34.7525 27.9987 33.5026L33.4987 27.9859C34.7445 26.7387 35.4457 25.0488 35.4487 23.2859V15.5026C35.4501 13.734 34.7486 12.0373 33.4987 10.7859ZM18.132 13.7859C18.132 13.3394 18.3703 12.9267 18.757 12.7034C19.1438 12.4801 19.6203 12.4801 20.007 12.7034C20.3938 12.9267 20.632 13.3394 20.632 13.7859V18.9526C20.632 19.643 20.0724 20.2026 19.382 20.2026C18.6917 20.2026 18.132 19.643 18.132 18.9526V13.7859ZM19.3987 25.0359C20.0891 25.0359 20.6487 24.4763 20.6487 23.7859C20.6487 23.0956 20.0891 22.5359 19.3987 22.5359C18.7083 22.5359 18.1487 23.0956 18.1487 23.7859C18.1487 24.4763 18.7083 25.0359 19.3987 25.0359Z" fill="#0C418C"/>
</svg>
