<svg width="89" height="89" viewBox="0 0 89 89" fill="none" xmlns="http://www.w3.org/2000/svg">
<circle cx="44.5" cy="44.5" r="44.5" fill="#252525"/>
<path d="M67.7649 59.3035C67.7649 60.4251 67.3193 61.5009 66.5262 62.2941C65.733 63.0872 64.6573 63.5328 63.5356 63.5328H25.4715C24.3498 63.5328 23.2741 63.0872 22.4809 62.2941C21.6878 61.5009 21.2422 60.4251 21.2422 59.3035V36.0421C21.2422 34.9204 21.6878 33.8447 22.4809 33.0515C23.2741 32.2583 24.3498 31.8128 25.4715 31.8128H33.9302L38.1595 25.4688H50.8476L55.0769 31.8128H63.5356C64.6573 31.8128 65.733 32.2583 66.5262 33.0515C67.3193 33.8447 67.7649 34.9204 67.7649 36.0421V59.3035Z" stroke="white" stroke-width="1.84553" stroke-linecap="round" stroke-linejoin="round"/>
<path d="M44.4977 55.0736C49.1693 55.0736 52.9564 51.2865 52.9564 46.6149C52.9564 41.9433 49.1693 38.1562 44.4977 38.1562C39.8261 38.1562 36.0391 41.9433 36.0391 46.6149C36.0391 51.2865 39.8261 55.0736 44.4977 55.0736Z" stroke="white" stroke-width="1.84553" stroke-linecap="round" stroke-linejoin="round"/>
</svg>
