<svg width="560" height="560" viewBox="0 0 560 560" fill="none" xmlns="http://www.w3.org/2000/svg">
<rect width="560" height="560" fill="white"/>
<path d="M140.584 247.432C139.694 233.478 139.403 221.16 139.745 210.48C140.087 199.799 140.687 188.377 141.594 176.215C142.485 164.517 146.063 155.852 152.331 150.219C158.598 144.603 166.303 141.777 175.481 141.777C183.529 141.777 190.19 144.31 195.447 149.375C200.704 154.439 203.323 161.244 203.323 169.789C203.323 175.181 202.262 179.746 200.139 183.467C198.015 187.188 195.549 190.393 192.758 193.08C189.967 195.785 187.502 198.42 185.378 201.005C183.255 203.589 182.193 206.466 182.193 209.618C182.193 215.923 184.214 220.144 188.238 222.28C192.262 224.416 198.306 225.484 206.354 225.484H248.631C260.926 225.484 271.114 227.913 279.162 232.737C287.21 237.578 291.234 246.519 291.234 259.577C291.234 283.661 277.142 295.685 248.957 295.685H204.676C184.984 295.685 169.676 292.033 158.717 284.712C147.759 277.407 141.714 264.969 140.601 247.415L140.584 247.432ZM221.097 425.975C202.313 425.975 188.443 422.547 179.505 415.673C170.55 408.799 166.08 399.187 166.08 386.817C166.08 379.392 167.416 373.26 170.104 368.419C172.793 363.578 175.806 359.926 179.163 357.445C182.519 354.964 185.087 353.621 186.885 353.397V353.052C180.618 353.052 175.584 350.916 171.783 346.643C167.981 342.371 166.08 336.738 166.08 329.761C166.08 323.232 168.033 317.495 171.954 312.551C175.858 307.607 181.851 305.126 189.899 305.126H324.436C337.638 305.126 347.518 308.675 354.127 315.755C360.72 322.835 364.025 332.689 364.025 345.283V389.16C364.025 413.692 350.823 425.958 324.436 425.958H221.114L221.097 425.975ZM199.967 358.461C199.967 360.718 200.515 362.182 201.645 362.854C202.758 363.526 205.104 363.871 208.683 363.871H298.922C302.501 363.871 304.795 363.526 305.806 362.854C306.816 362.182 307.313 360.718 307.313 358.461C307.313 355.981 306.816 354.465 305.806 353.913C304.795 353.362 302.501 353.069 298.922 353.069H208.683C205.104 353.069 202.758 353.362 201.645 353.913C200.515 354.482 199.967 355.998 199.967 358.461ZM303.289 167.084C303.289 157.868 306.302 150.374 312.347 144.637C318.391 138.9 326.542 136.023 336.833 136.023C347.124 136.023 354.829 138.952 360.651 144.792C366.473 150.649 369.367 158.298 369.367 167.739V174.147L374.401 177.179C375.959 170.874 378.648 165.878 382.449 162.157C386.251 158.453 391.507 156.593 398.22 156.593C405.377 156.593 411.182 159.125 415.668 164.19C420.137 169.255 422.38 176.06 422.38 184.604C422.38 193.614 419.966 200.522 415.172 205.363C410.36 210.204 404.709 212.616 398.237 212.616C393.083 212.616 388.733 211.22 385.155 208.395C381.576 205.587 378.785 202.383 376.764 198.782C375.429 196.543 373.853 195.63 372.073 196.078C370.275 196.525 369.384 198.334 369.384 201.47V236.579L374.418 239.611C375.977 233.306 378.665 228.361 382.466 224.761C386.268 221.16 391.524 219.369 398.237 219.369C405.394 219.369 411.199 221.849 415.685 226.794C420.154 231.738 422.398 238.491 422.398 247.053C422.398 256.063 419.983 262.971 415.189 267.812C410.394 272.653 404.726 275.064 398.254 275.064C393.1 275.064 388.751 273.669 385.172 270.844C381.593 268.036 378.802 264.935 376.781 261.558C375.446 259.078 373.87 258.13 372.09 258.681C370.292 259.25 369.401 261.11 369.401 264.246V268.966C369.401 277.735 366.388 285.004 360.343 290.741C354.299 296.478 346.473 299.355 336.867 299.355C327.261 299.355 319.247 296.478 312.878 290.741C306.508 285.004 303.323 277.752 303.323 268.966V167.101L303.289 167.084Z" fill="#FF544A"/>
<path d="M386.205 404.408C386.668 402.772 387.546 401.413 388.841 400.341C390.137 399.268 391.73 399.008 393.618 399.563C394.839 399.899 395.82 400.45 396.561 401.216C397.302 401.981 397.96 402.738 398.539 403.487C399.114 404.235 399.744 404.748 400.414 405.022L401.176 404.378C401.002 403.566 400.588 402.83 399.938 402.17C399.284 401.51 398.643 400.766 398.005 399.937C397.368 399.109 396.97 398.07 396.813 396.812C396.598 394.844 397.103 393.263 398.332 392.052C399.561 390.845 401.01 390.172 402.682 390.029C404.408 389.881 405.973 390.302 407.384 391.282C408.796 392.266 409.524 393.746 409.582 395.727C409.632 396.993 409.425 398.087 408.957 399.003C408.489 399.924 408.005 400.766 407.496 401.527C406.987 402.288 406.689 403.083 406.594 403.92L407.289 404.441C407.959 404.054 408.522 403.44 408.969 402.603C409.416 401.766 409.93 400.909 410.509 400.034C411.089 399.159 411.954 398.452 413.1 397.914C414.872 397.048 416.498 397.035 417.98 397.872C419.458 398.713 420.534 399.903 421.204 401.443C421.883 403.095 421.978 404.74 421.49 406.38C421.002 408.02 419.834 409.194 417.997 409.9C416.891 410.325 415.832 410.443 414.81 410.253C413.791 410.064 412.848 409.841 411.987 409.585C411.122 409.328 410.323 409.311 409.582 409.543L409.338 410.556C409.971 410.998 410.728 411.292 411.606 411.439C412.483 411.587 413.398 411.809 414.346 412.116C415.294 412.423 416.184 413.033 417.02 413.958C418.386 415.384 418.907 416.953 418.588 418.66C418.266 420.372 417.475 421.772 416.209 422.874C414.946 424.031 413.448 424.624 411.718 424.662C409.983 424.7 408.514 423.972 407.306 422.475C406.569 421.436 406.118 420.397 405.952 419.367C405.787 418.332 405.691 417.352 405.666 416.415C405.642 415.481 405.414 414.699 404.984 414.076L404.255 414.139C403.932 414.829 403.837 415.637 403.965 416.562C404.094 417.487 404.176 418.475 404.21 419.518C404.243 420.565 403.953 421.663 403.34 422.815C402.393 424.498 401.076 425.461 399.388 425.713C397.699 425.97 396.114 425.633 394.628 424.712C393.2 423.842 392.202 422.588 391.635 420.957C391.064 419.325 391.312 417.693 392.372 416.057C393.042 415.006 393.837 414.253 394.748 413.786C395.658 413.323 396.561 412.928 397.459 412.604C398.353 412.28 399.048 411.822 399.541 411.229L399.152 410.434C398.382 410.333 397.583 410.485 396.747 410.888C395.911 411.288 395.009 411.671 394.032 412.028C393.055 412.386 391.962 412.453 390.754 412.226C388.821 411.839 387.484 410.88 386.735 409.341C385.985 407.806 385.807 406.17 386.209 404.424L386.205 404.408Z" fill="#FF544A"/>
</svg>
