<svg width="266" height="267" viewBox="0 0 266 267" fill="none" xmlns="http://www.w3.org/2000/svg">
<circle cx="133" cy="133.438" r="133" fill="#D9D9D9"/>
<path d="M183 189.25V176.75C183 170.12 180.366 163.761 175.678 159.072C170.989 154.384 164.63 151.75 158 151.75H108C101.37 151.75 95.0107 154.384 90.3223 159.072C85.6339 163.761 83 170.12 83 176.75V189.25" stroke="black" stroke-opacity="0.32" stroke-width="6" stroke-linecap="round" stroke-linejoin="round"/>
<path d="M133 126.75C146.807 126.75 158 115.557 158 101.75C158 87.9429 146.807 76.75 133 76.75C119.193 76.75 108 87.9429 108 101.75C108 115.557 119.193 126.75 133 126.75Z" stroke="black" stroke-opacity="0.32" stroke-width="6" stroke-linecap="round" stroke-linejoin="round"/>
</svg>
