<svg width="25" height="30" viewBox="0 0 25 30" fill="none" xmlns="http://www.w3.org/2000/svg">
<path d="M24.32 14.2132L17.32 7.21316C17.1271 7.0256 16.8487 6.9552 16.5898 7.0285C16.3309 7.10179 16.1308 7.30764 16.0648 7.5685C15.9989 7.82936 16.0771 8.1056 16.27 8.29316L21.98 13.9932H8.75C8.33579 13.9932 8 14.3289 8 14.7432C8 15.1574 8.33579 15.4932 8.75 15.4932H21.97L16.27 21.1932C16.1271 21.3324 16.0464 21.5236 16.0464 21.7232C16.0464 21.9227 16.1271 22.1139 16.27 22.2532C16.4078 22.3978 16.6002 22.4777 16.8 22.4732C16.9991 22.4741 17.1901 22.3948 17.33 22.2532L24.33 15.2532C24.6225 14.9603 24.6225 14.486 24.33 14.1932L24.32 14.2132Z" fill="#898989"/>
<path d="M25 1H1V29H25" stroke="#898989"/>
</svg>
