<svg width="17" height="13" viewBox="0 0 17 13" fill="none" xmlns="http://www.w3.org/2000/svg">
<path fill-rule="evenodd" clip-rule="evenodd" d="M9.60939 4.89404C10.4133 4.87473 11.1315 4.38646 11.445 3.646C11.5119 3.67421 11.5835 3.68977 11.6561 3.69188H15.3273C15.7075 3.69188 16.0156 3.38374 16.0156 3.00362C16.0156 2.62351 15.7075 2.31537 15.3273 2.31537H11.702C11.6624 2.31017 11.6223 2.31017 11.5827 2.31537C11.3198 1.28261 10.3082 0.624446 9.25736 0.802436C8.2065 0.980427 7.46817 1.93499 7.56013 2.99669C7.6521 4.0584 8.54358 4.87182 9.60939 4.86651V4.89404ZM9.60939 2.18689C9.97942 2.18689 10.2794 2.48682 10.2794 2.8568C10.2794 3.22678 9.97942 3.5267 9.60939 3.5267C9.23936 3.5267 8.93939 3.22678 8.93939 2.8568C8.93939 2.48682 9.23936 2.18689 9.60939 2.18689Z" fill="#A6A6A6"/>
<path d="M0.688352 2.31537H6.19517C6.57533 2.31537 6.88352 2.62351 6.88352 3.00362C6.88352 3.38374 6.57533 3.69188 6.19517 3.69188H0.688352C0.308186 3.69188 0 3.38374 0 3.00362C0 2.62351 0.308186 2.31537 0.688352 2.31537Z" fill="#A6A6A6"/>
<path fill-rule="evenodd" clip-rule="evenodd" d="M2.44135 9.6568C2.72883 8.84378 3.49712 8.29981 4.35956 8.29863V8.28028C5.39742 8.27895 6.27199 9.05457 6.39455 10.085C6.51711 11.1155 5.84887 12.0746 4.83964 12.3167C3.83041 12.5587 2.79972 12.0072 2.44135 11.0333H0.688352C0.308185 11.0333 0 10.7252 0 10.3451C0 9.96494 0.308185 9.6568 0.688352 9.6568H2.44135ZM3.69067 10.3933C3.69698 10.7584 3.99444 11.0511 4.35956 11.0517V11.015C4.72959 11.015 5.02955 10.715 5.02955 10.3451C5.00955 9.98053 4.70131 9.69913 4.33642 9.71229C3.97153 9.72545 3.68437 10.0283 3.69067 10.3933Z" fill="#A6A6A6"/>
<path d="M8.03077 9.6568H15.3732C15.7534 9.6568 16.0615 9.96494 16.0615 10.3451C16.0615 10.7252 15.7534 11.0333 15.3732 11.0333H8.03077C7.6506 11.0333 7.34242 10.7252 7.34242 10.3451C7.34242 9.96494 7.6506 9.6568 8.03077 9.6568Z" fill="#A6A6A6"/>
</svg>
