<svg width="32" height="32" viewBox="0 0 32 32" fill="none" xmlns="http://www.w3.org/2000/svg">
<path fill-rule="evenodd" clip-rule="evenodd" d="M31.36 16.3665C31.36 15.2319 31.2582 14.141 31.0691 13.0938H16V19.2828H24.6109C24.24 21.2828 23.1127 22.9774 21.4182 24.1119V28.1265H26.5891C29.6145 25.341 31.36 21.2392 31.36 16.3665Z" fill="#4285F4"/>
<path fill-rule="evenodd" clip-rule="evenodd" d="M16.0013 31.9991C20.3213 31.9991 23.9431 30.5663 26.5904 28.1227L21.4195 24.1082C19.9868 25.0682 18.154 25.6354 16.0013 25.6354C11.834 25.6354 8.30676 22.8209 7.04858 19.0391H1.70312V23.1845C4.33585 28.4136 9.74676 31.9991 16.0013 31.9991Z" fill="#34A853"/>
<path fill-rule="evenodd" clip-rule="evenodd" d="M7.04727 19.0458C6.72727 18.0858 6.54545 17.0603 6.54545 16.0058C6.54545 14.9512 6.72727 13.9258 7.04727 12.9658V8.82031H1.70182C0.618182 10.9803 0 13.4239 0 16.0058C0 18.5876 0.618182 21.0312 1.70182 23.1912L7.04727 19.0458Z" fill="#FBBC05"/>
<path fill-rule="evenodd" clip-rule="evenodd" d="M16.0013 6.36364C18.3504 6.36364 20.4595 7.17091 22.1177 8.75636L26.7068 4.16727C23.9359 1.58545 20.314 0 16.0013 0C9.74676 0 4.33585 3.58545 1.70312 8.81455L7.04858 12.96C8.30676 9.17818 11.834 6.36364 16.0013 6.36364Z" fill="#EA4335"/>
</svg>
