<svg width="171" height="38" viewBox="0 0 171 38" fill="none" xmlns="http://www.w3.org/2000/svg">
<g clip-path="url(#clip0_579_1950)">
<path d="M27.1128 14.7062C26.9959 12.8857 26.9577 11.2788 27.0027 9.88538C27.0476 8.49196 27.1263 7.0019 27.2454 5.41519C27.3623 3.88917 27.832 2.7587 28.6546 2.02378C29.4771 1.29111 30.4885 0.922526 31.6931 0.922526C32.7494 0.922526 33.6237 1.2529 34.3137 1.91365C35.0036 2.57441 35.3475 3.46215 35.3475 4.57689C35.3475 5.28034 35.2082 5.87592 34.9295 6.36137C34.6508 6.84682 34.3272 7.26485 33.9608 7.61545C33.5945 7.9683 33.2708 8.31216 32.9922 8.64928C32.7135 8.9864 32.5741 9.36173 32.5741 9.77301C32.5741 10.5956 32.8393 11.1462 33.3675 11.4249C33.8956 11.7036 34.689 11.8429 35.7453 11.8429H41.2943C42.9079 11.8429 44.2452 12.1598 45.3015 12.7891C46.3578 13.4206 46.8859 14.5871 46.8859 16.2906C46.8859 19.4326 45.0363 21.0013 41.337 21.0013H35.525C32.9405 21.0013 30.9312 20.5248 29.4929 19.5697C28.0545 18.6168 27.2611 16.9941 27.1151 14.7039L27.1128 14.7062ZM37.6804 37.9988C35.2149 37.9988 33.3945 37.5516 32.2213 36.6548C31.0459 35.7581 30.4593 34.504 30.4593 32.8904C30.4593 31.9217 30.6346 31.1216 30.9874 30.4901C31.3403 29.8585 31.7358 29.3821 32.1763 29.0584C32.6168 28.7348 32.954 28.5595 33.1899 28.5303V28.4853C32.3674 28.4853 31.7066 28.2067 31.2077 27.6493C30.7087 27.0919 30.4593 26.357 30.4593 25.4468C30.4593 24.595 30.7155 23.8466 31.2302 23.2016C31.7426 22.5565 32.5292 22.2329 33.5855 22.2329H51.2438C52.9765 22.2329 54.2733 22.6959 55.1408 23.6196C56.0061 24.5433 56.4399 25.8288 56.4399 27.4717V33.196C56.4399 36.3964 54.7071 37.9966 51.2438 37.9966H37.6826L37.6804 37.9988ZM34.907 29.191C34.907 29.4855 34.9789 29.6765 35.1272 29.7641C35.2733 29.8518 35.5812 29.8967 36.0509 29.8967H47.895C48.3648 29.8967 48.6659 29.8518 48.7985 29.7641C48.9311 29.6765 48.9963 29.4855 48.9963 29.191C48.9963 28.8674 48.9311 28.6696 48.7985 28.5977C48.6659 28.5258 48.3648 28.4876 47.895 28.4876H36.0509C35.5812 28.4876 35.2733 28.5258 35.1272 28.5977C34.9789 28.6719 34.907 28.8697 34.907 29.191ZM48.4681 4.22404C48.4681 3.02165 48.8637 2.04401 49.6571 1.2956C50.4504 0.5472 51.5202 0.171875 52.8709 0.171875C54.2216 0.171875 55.233 0.553943 55.9971 1.31583C56.7613 2.07997 57.1411 3.07784 57.1411 4.30944V5.1455L57.8018 5.54105C58.0064 4.71848 58.3592 4.06672 58.8581 3.58127C59.3571 3.09806 60.047 2.85534 60.928 2.85534C61.8675 2.85534 62.6294 3.18571 63.2182 3.84647C63.8048 4.50722 64.0992 5.39496 64.0992 6.5097C64.0992 7.68512 63.7823 8.58635 63.153 9.21789C62.5215 9.84942 61.7798 10.1641 60.9303 10.1641C60.2538 10.1641 59.683 9.98202 59.2132 9.61344C58.7435 9.24711 58.3772 8.82908 58.112 8.35936C57.9367 8.06719 57.7299 7.94808 57.4962 8.00651C57.2602 8.06494 57.1433 8.30093 57.1433 8.70996V13.2903L57.8041 13.6858C58.0086 12.8633 58.3615 12.2182 58.8604 11.7485C59.3593 11.2788 60.0493 11.0451 60.9303 11.0451C61.8697 11.0451 62.6316 11.3687 63.2205 12.0137C63.807 12.6587 64.1015 13.5398 64.1015 14.6567C64.1015 15.8322 63.7846 16.7334 63.1553 17.3649C62.526 17.9965 61.7821 18.3111 60.9325 18.3111C60.2561 18.3111 59.6852 18.1291 59.2155 17.7605C58.7458 17.3941 58.3794 16.9896 58.1142 16.5491C57.9389 16.2255 57.7322 16.1019 57.4984 16.1738C57.2624 16.2479 57.1456 16.4907 57.1456 16.8997V17.5155C57.1456 18.6595 56.75 19.6079 55.9567 20.3563C55.1633 21.1047 54.1362 21.48 52.8754 21.48C51.6146 21.48 50.5628 21.1047 49.7267 20.3563C48.8907 19.6079 48.4726 18.6617 48.4726 17.5155V4.22629L48.4681 4.22404Z" fill="#FF544A"/>
<path d="M72.4273 30.9969C69.9012 30.9969 67.8537 30.2485 66.285 28.7517C64.714 27.2549 63.9297 25.185 63.9297 22.5442C63.9297 20.753 64.1432 19.227 64.568 17.9639C64.9927 16.7031 65.5209 15.6378 66.1524 14.7725C66.784 13.9073 67.4065 13.2083 68.0246 12.6802L67.5413 11.7564C66.6896 11.7564 65.9412 11.3901 65.2961 10.6552C64.6511 9.92252 64.3275 8.86397 64.3275 7.48403C64.3275 6.10409 64.6511 5.04105 65.2961 4.29264C65.9412 3.54424 66.6896 3.16891 67.5413 3.16891H75.2906C77.2279 3.16891 78.6955 3.71954 79.6933 4.82079C80.6912 5.92205 81.1902 7.5155 81.1902 9.59889V11.3159H82.2038C83.0848 11.3159 83.5253 10.8462 83.5253 9.90679V4.13757C83.5253 3.05205 83.8489 2.20026 84.4939 1.58446C85.1389 0.968654 85.9615 0.660752 86.9594 0.660752C87.9572 0.660752 88.7416 0.968654 89.4024 1.58446C90.0631 2.20026 90.3935 3.05205 90.3935 4.13757V33.8152C90.3935 34.9008 90.0631 35.7525 89.4024 36.3683C88.7416 36.9841 87.928 37.2921 86.9594 37.2921C85.9907 37.2921 85.1389 36.9841 84.4939 36.3683C83.8466 35.7525 83.5253 34.9008 83.5253 33.8152V16.0693H81.1924V24.0837C81.1924 26.3155 80.7227 28.0258 79.7832 29.2147C78.8438 30.4036 77.2886 30.9992 75.1153 30.9992H72.4296L72.4273 30.9969ZM69.5641 18.6247C69.6809 19.6225 69.8787 20.2608 70.1574 20.5395C70.4361 20.8182 70.8541 20.9575 71.4115 20.9575H72.688C73.2746 20.9575 73.6792 20.7755 73.8994 20.4069C74.1197 20.0406 74.2298 19.5641 74.2298 18.9753V13.7792C74.2298 13.1341 74.1197 12.6352 73.8994 12.2824C73.6792 11.9295 73.2746 11.7542 72.688 11.7542H70.7957C69.591 11.7542 69.0337 12.4307 69.1213 13.7792L69.5618 18.6224L69.5641 18.6247ZM91.5374 3.65436C91.5374 2.45198 91.8678 1.54176 92.5286 0.923705C93.1893 0.307902 94.0479 0 95.1042 0C96.1605 0 97.019 0.307902 97.6797 0.923705C98.3405 1.53951 98.6709 2.44973 98.6709 3.65436V34.3007C98.6709 35.5031 98.3405 36.4223 97.6797 37.0538C97.019 37.6854 96.1605 38 95.1042 38C94.0479 38 93.1893 37.6831 92.5286 37.0538C91.8678 36.4223 91.5374 35.5053 91.5374 34.3007V3.65212V3.65436Z" fill="#FF544A"/>
<path d="M118.554 6.2769C116.484 3.97326 113.733 2.82031 110.297 2.82031C107.243 2.82031 104.975 3.40016 103.494 4.55984C102.011 5.71953 101.33 7.20959 101.446 9.03004C101.505 10.174 101.887 11.064 102.59 11.6933C103.294 12.3248 104.013 12.6395 104.748 12.6395L105.189 13.6081C104.602 13.7834 103.948 14.1745 103.229 14.7745C102.51 15.3769 101.9 16.2489 101.402 17.3951C100.903 18.539 100.667 19.9931 100.698 21.7551C100.786 23.9576 101.321 25.7624 102.305 27.1715C103.289 28.5807 104.55 29.6235 106.092 30.2977C107.634 30.9742 109.241 31.3113 110.913 31.3113C113.055 31.3113 114.933 30.8191 116.549 29.837C118.163 28.8526 119.419 27.3131 120.314 25.214C121.208 23.1148 121.658 20.3932 121.658 17.0467C121.658 12.1742 120.624 8.58504 118.554 6.2814V6.2769ZM112.587 20.2786C112.001 20.9977 111.09 21.3573 109.856 21.3573C108.623 21.3573 107.67 20.991 107.083 20.2561C106.497 19.5234 106.202 18.2603 106.202 16.4691C106.202 14.561 106.488 13.2553 107.061 12.5496C107.634 11.8461 108.551 11.4932 109.814 11.4932C111.077 11.4932 111.926 11.8461 112.544 12.5496C113.16 13.253 113.47 14.561 113.47 16.4691C113.47 18.3772 113.176 19.5594 112.589 20.2786H112.587Z" fill="#FF544A"/>
<path d="M124.168 4.2646C124.168 3.06221 124.564 2.04861 125.357 1.22604C126.15 0.40572 127.22 -0.0078125 128.571 -0.0078125C129.921 -0.0078125 130.926 0.410215 131.674 1.24627C132.423 2.08232 132.798 3.1184 132.798 4.35001V34.0277C132.798 35.1424 132.409 36.0818 131.632 36.846C130.854 37.6101 129.834 37.9899 128.571 37.9899C127.308 37.9899 126.258 37.6079 125.422 36.846C124.586 36.0818 124.168 35.1424 124.168 34.0277V4.2646Z" fill="#FF544A"/>
<path d="M138.63 34.9637C137.544 34.9637 136.582 34.5748 135.746 33.7972C134.91 33.0196 134.492 31.9566 134.492 30.6058C134.492 29.2551 134.91 28.2797 135.746 27.5021C136.582 26.7245 137.573 26.3357 138.717 26.3357H166.59C167.734 26.3357 168.683 26.7402 169.431 27.547C170.18 28.3539 170.555 29.3742 170.555 30.6081C170.555 31.8419 170.18 32.914 169.431 33.7343C168.683 34.5569 167.737 34.9681 166.59 34.9681H138.63V34.9637ZM137.881 17.8358C137.881 16.4851 138.124 15.3636 138.607 14.4668C139.093 13.5724 139.648 12.8667 140.282 12.3542C140.913 11.8418 141.432 11.5114 141.846 11.3631L141.45 10.6597C140.54 10.6597 139.756 10.3001 139.095 9.58087C138.434 8.86169 138.104 7.92899 138.104 6.78504C138.104 5.64108 138.457 4.75334 139.16 4.0319C139.864 3.31272 140.819 2.95312 142.021 2.95312H161.352C162.79 2.95312 163.824 3.31272 164.455 4.0319C165.087 4.75109 165.401 5.66805 165.401 6.78504C165.401 7.90202 165.085 8.87068 164.455 9.60335C163.824 10.3383 162.788 10.7046 161.352 10.7046H144.927C143.958 10.7046 143.518 11.2035 143.606 12.2014H161.792C162.291 12.2014 162.687 12.3565 162.981 12.6644C163.273 12.9723 163.421 13.3768 163.421 13.8758C163.421 14.3455 163.273 14.741 162.981 15.0647C162.687 15.3883 162.291 15.5501 161.792 15.5501H144.972C145.206 16.0198 145.5 16.3862 145.853 16.6514C146.206 16.9166 146.705 17.0469 147.35 17.0469H161.617C163.318 17.0469 164.538 17.3706 165.271 18.0156C166.004 18.6606 166.372 19.645 166.372 20.9665C166.372 22.288 166.006 23.2117 165.271 23.9174C164.536 24.6209 163.318 24.9737 161.617 24.9737H146.867C144.107 24.9737 141.92 24.3804 140.306 23.1915C138.693 22.0026 137.884 20.2181 137.884 17.8425L137.881 17.8358Z" fill="#FF544A"/>
<path d="M0.111224 15.3087C0.362939 14.4345 0.8394 13.7085 1.54285 13.1354C2.24631 12.5623 3.11158 12.423 4.13642 12.7197C4.79942 12.8995 5.33207 13.1939 5.73436 13.6029C6.13666 14.012 6.494 14.4165 6.80864 14.8165C7.12104 15.2166 7.46266 15.4908 7.82674 15.6369L8.24027 15.293C8.14588 14.8592 7.92114 14.4659 7.56829 14.1131C7.21319 13.7602 6.86483 13.3624 6.51872 12.9197C6.17262 12.4769 5.95686 11.9218 5.87146 11.2498C5.75459 10.198 6.02878 9.35297 6.69627 8.70571C7.36377 8.06069 8.15038 7.70109 9.05835 7.62468C9.99554 7.54602 10.8451 7.77076 11.6115 8.29442C12.3778 8.82033 12.7734 9.61143 12.8049 10.67C12.8318 11.3465 12.7195 11.9308 12.4655 12.4208C12.2115 12.9129 11.9486 13.3624 11.6721 13.7692C11.3957 14.176 11.2339 14.6008 11.1822 15.048L11.5598 15.3267C11.9239 15.1199 12.2295 14.7918 12.4722 14.3446C12.715 13.8973 12.9936 13.4389 13.3083 12.9714C13.6229 12.5039 14.0927 12.1263 14.7152 11.8387C15.6771 11.3757 16.5604 11.3689 17.3649 11.8162C18.1673 12.2657 18.7516 12.9017 19.1157 13.7243C19.4843 14.6075 19.536 15.4863 19.2708 16.3628C19.0056 17.2393 18.3718 17.8663 17.3739 18.2439C16.7739 18.4709 16.1985 18.5338 15.6434 18.4327C15.0905 18.3316 14.5781 18.2124 14.1106 18.0754C13.6409 17.9383 13.2072 17.9293 12.8049 18.0529L12.6723 18.5945C13.0161 18.8305 13.4274 18.9878 13.9039 19.0665C14.3803 19.1451 14.877 19.2643 15.3917 19.4283C15.9063 19.5924 16.3896 19.9183 16.8435 20.4127C17.5852 21.1746 17.8684 22.0129 17.6953 22.9254C17.52 23.8401 17.0908 24.5885 16.403 25.1773C15.7176 25.7954 14.904 26.1123 13.9645 26.1325C13.0229 26.1527 12.225 25.7639 11.5688 24.9638C11.1687 24.4087 10.9237 23.8536 10.8338 23.3029C10.7439 22.7501 10.6923 22.2264 10.6788 21.7252C10.6653 21.2263 10.5417 20.8083 10.3079 20.4756L9.91238 20.5093C9.73708 20.8779 9.68539 21.3094 9.75506 21.8039C9.82473 22.2983 9.86968 22.8265 9.88766 23.3838C9.90564 23.9435 9.74832 24.5301 9.4157 25.1459C8.90103 26.0448 8.18634 26.5595 7.26937 26.6944C6.35241 26.8314 5.49164 26.6516 4.6848 26.1595C3.90943 25.6942 3.36779 25.0245 3.05989 24.1525C2.74974 23.2805 2.88459 22.4085 3.45993 21.5342C3.82402 20.9723 4.25553 20.57 4.74997 20.3206C5.24442 20.0733 5.73436 19.8621 6.22206 19.689C6.70751 19.516 7.08508 19.271 7.35253 18.9541L7.14127 18.5293C6.72324 18.4754 6.28948 18.5563 5.8355 18.7721C5.38151 18.9856 4.89156 19.1901 4.36116 19.3811C3.83077 19.5722 3.23744 19.6081 2.58118 19.4868C1.53162 19.28 0.805688 18.7676 0.398898 17.945C-0.00789122 17.1247 -0.104532 16.2504 0.113471 15.3177L0.111224 15.3087Z" fill="#FF544A"/>
</g>
<defs>
<clipPath id="clip0_579_1950">
<rect width="170.553" height="38" fill="white"/>
</clipPath>
</defs>
</svg>
