<svg width="29" height="25" viewBox="0 0 29 25" fill="none" xmlns="http://www.w3.org/2000/svg">
<g id="Icon">
<path d="M9.57635 12.2068H9.68571C12.7054 12.2068 15.1534 9.75882 15.1534 6.73911V4.59304C15.1498 3.36655 14.6572 2.19212 13.7849 1.33C12.9125 0.467885 11.7323 -0.0107407 10.5059 0.000182958H8.70152C6.16808 0.00768952 4.11618 2.05959 4.10867 4.59304V6.73911C4.10867 9.75882 6.55664 12.2068 9.57635 12.2068Z" fill="black"/>
<path d="M21.3045 11.1816C23.5693 11.1816 25.4053 9.34562 25.4053 7.08084V5.50888C25.4054 3.61708 23.8797 2.07925 21.988 2.06423H20.6211C18.7293 2.07925 17.2037 3.61708 17.2038 5.50888V7.08084C17.2038 9.34562 19.0398 11.1816 21.3045 11.1816Z" fill="black"/>
<path d="M27.9888 16.8817L27.7701 15.8018C27.5116 14.3194 26.2266 13.2361 24.7218 13.232H16.3836C15.3647 13.2342 14.4148 13.7476 13.8548 14.5989H4.21802C3.25117 14.5996 2.32149 14.9715 1.62087 15.6378C1.01892 16.1893 0.595318 16.908 0.40431 17.7018C0.40431 17.7702 0.40431 17.8385 0.40431 17.8932V18.2486L0.117257 19.3421C-0.175109 20.5385 0.0857027 21.8029 0.827611 22.7859C1.56952 23.769 2.71396 24.3665 3.94464 24.4134H15.2627C15.5532 24.4124 15.8424 24.3757 16.1239 24.304H16.3016C16.507 24.2455 16.708 24.1724 16.9031 24.0853L17.1218 23.9623C17.2849 23.8702 17.4403 23.7651 17.5865 23.6479L17.8052 23.4702C17.9397 23.3449 18.0674 23.2126 18.188 23.0738C18.188 23.0055 18.311 22.9508 18.3657 22.8688C18.5184 22.6681 18.6512 22.4529 18.7621 22.2263C18.8204 22.1021 18.8706 21.9743 18.9124 21.8436C18.9662 21.7191 19.0118 21.5912 19.0491 21.4608C19.0491 21.3242 19.1175 21.1875 19.1448 21.0508V20.8457H24.9952C25.9605 20.8172 26.8606 20.3522 27.4426 19.5816C28.0246 18.8109 28.2254 17.8179 27.9888 16.8817Z" fill="black"/>
</g>
</svg>
