<svg width="15" height="16" viewBox="0 0 15 16" fill="none" xmlns="http://www.w3.org/2000/svg">
<path d="M6.85629e-05 15C6.8581e-05 15.4142 0.335855 15.75 0.750069 15.75L13.7501 15.75C14.1643 15.75 14.5001 15.4142 14.5001 15C14.5001 14.5858 14.1643 14.25 13.7501 14.25L0.750069 14.25C0.550335 14.2473 0.357987 14.3254 0.216741 14.4667C0.0754953 14.6079 -0.00264928 14.8003 6.85629e-05 15Z" fill="black"/>
<path d="M6.82569e-05 8C6.8275e-05 8.41421 0.335855 8.75 0.750068 8.75L13.7501 8.75C14.1643 8.75 14.5001 8.41421 14.5001 8C14.5001 7.58579 14.1643 7.25 13.7501 7.25L0.750068 7.25C0.550335 7.24728 0.357986 7.32543 0.216741 7.46667C0.075495 7.60792 -0.00264959 7.80027 6.82569e-05 8Z" fill="black"/>
<path d="M6.79509e-05 0.999999C6.79691e-05 1.41421 0.335854 1.75 0.750068 1.75L13.7501 1.75C14.1643 1.75 14.5001 1.41421 14.5001 0.999998C14.5001 0.585784 14.1643 0.249997 13.7501 0.249997L0.750068 0.249998C0.550335 0.24728 0.357986 0.325425 0.21674 0.466671C0.0754947 0.607917 -0.00264989 0.800265 6.79509e-05 0.999999Z" fill="black"/>
</svg>
