<svg width="24" height="24" viewBox="0 0 24 24" fill="none" xmlns="http://www.w3.org/2000/svg">
<path fill-rule="evenodd" clip-rule="evenodd" d="M21.7411 14.7403L21.8811 15.4303C22.0335 16.0198 21.9092 16.6465 21.5433 17.1332C21.1773 17.6198 20.6097 17.9132 20.0011 17.9303H16.1911C16.192 19.5489 14.9088 20.8764 13.2911 20.9303H5.00108C4.08562 20.9151 3.2272 20.4827 2.67009 19.7562C2.11298 19.0296 1.91816 18.0883 2.14108 17.2003L2.35108 16.2003C2.59527 14.8228 3.78222 13.812 5.18108 13.7903H13.1211C13.4754 13.3668 13.9989 13.1216 14.5511 13.1203H19.8411C20.7751 13.1501 21.564 13.8227 21.7411 14.7403ZM19.9811 16.4203C20.1031 16.4158 20.2167 16.3571 20.2911 16.2603C20.4219 16.1283 20.4877 15.9454 20.4711 15.7603L20.3311 15.0703C20.304 14.8468 20.1252 14.6721 19.9011 14.6503H14.6111C14.496 14.6511 14.3882 14.7068 14.3211 14.8003C14.0343 15.1306 13.6185 15.3203 13.1811 15.3203H5.24108C4.55649 15.337 3.98287 15.8431 3.88108 16.5203L3.67108 17.5203C3.56851 18.0128 3.68935 18.5255 4.00108 18.9203C4.24458 19.2274 4.60952 19.4135 5.00108 19.4303H13.2611C14.0659 19.3769 14.6844 18.6966 14.6611 17.8903C14.6774 17.0736 15.3442 16.4201 16.1611 16.4203H19.9811Z" fill="black"/>
<path fill-rule="evenodd" clip-rule="evenodd" d="M13.1011 8.00031C13.1011 10.2095 11.3102 12.0003 9.10108 12.0003C6.89194 12.0003 5.10108 10.2095 5.10108 8.00031V6.43031C5.10108 4.57464 6.6054 3.07031 8.46108 3.07031H9.77108C11.615 3.08678 13.1012 4.58629 13.1011 6.43031V8.00031ZM8.46108 4.57031C7.43383 4.57031 6.60108 5.40306 6.60108 6.43031L6.63108 8.00031C6.79067 9.25949 7.86183 10.2035 9.13108 10.2035C10.4003 10.2035 11.4715 9.25949 11.6311 8.00031V6.43031C11.6311 5.40306 10.7983 4.57031 9.77108 4.57031H8.46108Z" fill="black"/>
<path fill-rule="evenodd" clip-rule="evenodd" d="M20.6811 8.25031C20.6811 9.90717 19.3379 11.2503 17.6811 11.2503C16.0242 11.2503 14.6811 9.90717 14.6811 8.25031V7.10031C14.6809 5.72403 15.785 4.60216 17.1611 4.58031H18.1611C19.5528 4.58031 20.6811 5.70855 20.6811 7.10031V8.25031ZM17.1811 6.10031C16.6288 6.10031 16.1811 6.54803 16.1811 7.10031V8.25031C16.1811 9.07874 16.8527 9.75031 17.6811 9.75031C18.5095 9.75031 19.1811 9.07874 19.1811 8.25031V7.10031C19.1811 6.54803 18.7334 6.10031 18.1811 6.10031H17.1811Z" fill="black"/>
</svg>
