<svg width="292" height="243" viewBox="0 0 292 243" fill="none" xmlns="http://www.w3.org/2000/svg">
<path d="M254.507 0.0166093C217.933 -1.21601 202.447 66.4629 195.508 101.516C191.562 107.551 176.068 117.639 206.111 115.173C243.665 112.092 249.609 46.8011 254.507 36.0157C259.405 25.2303 263.258 53.5424 280.402 46.2237C297.546 38.9051 300.224 1.55738 254.507 0.0166093Z" fill="#81DC85"/>
<ellipse cx="132.5" cy="120.5" rx="108.5" ry="95.5" fill="white"/>
<path d="M260 123.5C262.761 123.5 265.012 125.74 264.884 128.498C264.235 142.485 260.865 156.273 254.914 169.231C248.255 183.729 238.495 196.903 226.192 207.999C213.888 219.096 199.281 227.898 183.206 233.904C167.13 239.909 149.9 243 132.5 243C115.1 243 97.8701 239.909 81.7944 233.904C65.7188 227.898 51.1121 219.096 38.8083 207.999C26.5046 196.903 16.7447 183.729 10.086 169.231C4.13505 156.273 0.765155 142.485 0.115948 128.498C-0.0120888 125.74 2.23858 123.5 5 123.5L132.5 123.5H260Z" fill="#FF544A"/>
<circle cx="92" cy="65" r="7" fill="#898989" fill-opacity="0.3"/>
<circle cx="68.5" cy="80.5" r="10.5" fill="#898989" fill-opacity="0.3"/>
</svg>
