<svg width="48" height="48" viewBox="0 0 48 48" fill="none" xmlns="http://www.w3.org/2000/svg">
<path id="Icon" opacity="0.3" fill-rule="evenodd" clip-rule="evenodd" d="M18.9723 0H29.0277C34.0594 0 38.8851 1.99887 42.4431 5.55687C46.0011 9.11487 48 13.9406 48 18.9723V29.0277C48 39.5058 39.5058 48 29.0277 48H18.9723C8.4942 48 0 39.5058 0 29.0277V18.9723C0 8.4942 8.4942 0 18.9723 0ZM34.2584 23.8908C35.889 22.2781 36.8065 20.08 36.8063 17.7866V15.0356C36.8063 14.4001 36.4673 13.8129 35.917 13.4952C35.3667 13.1775 34.6887 13.1775 34.1384 13.4952C33.588 13.8129 33.249 14.4001 33.249 15.0356V17.7866C33.2819 19.1549 32.7527 20.477 31.7848 21.4449C30.817 22.4128 29.4949 22.9419 28.1265 22.9091H17.2648L22.5059 17.668C23.159 16.9672 23.1397 15.8751 22.4624 15.1977C21.785 14.5204 20.6929 14.5011 19.9921 15.1542L11.7154 23.4308C11.5547 23.5953 11.426 23.7883 11.336 24C11.146 24.4388 11.146 24.9367 11.336 25.3755C11.426 25.5872 11.5547 25.7802 11.7154 25.9447L19.9921 34.1265C20.3282 34.4559 20.7785 34.6428 21.249 34.6482C21.7186 34.638 22.1672 34.4518 22.5059 34.1265C23.1995 33.4321 23.1995 32.3071 22.5059 31.6126L17.2648 26.3715H28.1265C30.4198 26.3969 32.6278 25.5036 34.2584 23.8908Z" fill="#4CAF4F"/>
</svg>
