<svg width="30" height="31" viewBox="0 0 30 31" fill="none" xmlns="http://www.w3.org/2000/svg">
<path fill-rule="evenodd" clip-rule="evenodd" d="M26.367 10.3022C26.6586 11.0126 27.3494 11.4774 28.1173 11.4796C29.1596 11.488 30 12.3353 30 13.3776V16.6531C30 17.7013 29.1503 18.551 28.102 18.551C27.3341 18.5533 26.6432 19.018 26.3517 19.7284C26.0602 20.4388 26.2254 21.2549 26.7704 21.7959C27.5015 22.5451 27.5015 23.7406 26.7704 24.4898L24.4745 26.7857C23.7253 27.5168 22.5298 27.5168 21.7806 26.7857C21.4351 26.4196 20.9524 26.2143 20.449 26.2194C19.943 26.2153 19.4563 26.4135 19.097 26.7699C18.7378 27.1262 18.5357 27.6113 18.5357 28.1174C18.5357 29.1656 17.686 30.0153 16.6378 30.0153H13.3622C12.314 30.0153 11.4643 29.1656 11.4643 28.1174C11.4643 27.6113 11.2622 27.1262 10.903 26.7699C10.5437 26.4135 10.057 26.2153 9.55102 26.2194C9.04761 26.2143 8.56494 26.4196 8.21939 26.7857C7.47023 27.5168 6.27467 27.5168 5.52551 26.7857L3.22959 24.4898C2.49852 23.7406 2.49852 22.5451 3.22959 21.7959C3.77456 21.2549 3.93983 20.4388 3.64829 19.7284C3.35676 19.018 2.66586 18.5533 1.89796 18.551C1.39459 18.551 0.911836 18.3511 0.555899 17.9951C0.199963 17.6392 0 17.1564 0 16.6531V13.3776C0 12.3293 0.849745 11.4796 1.89796 11.4796C2.66586 11.4774 3.35676 11.0126 3.64829 10.3022C3.93983 9.59179 3.77456 8.7757 3.22959 8.2347C2.49852 7.48553 2.49852 6.28998 3.22959 5.54082L5.52551 3.2449C6.27467 2.51383 7.47023 2.51383 8.21939 3.2449C8.56494 3.61101 9.04761 3.81629 9.55102 3.81123C10.0597 3.81534 10.5487 3.61509 10.9084 3.25539C11.2682 2.89568 11.4684 2.40664 11.4643 1.89796C11.4643 0.849745 12.314 0 13.3622 0H16.6531C17.7013 0 18.551 0.849745 18.551 1.89796C18.5469 2.40664 18.7472 2.89568 19.1069 3.25539C19.4666 3.61509 19.9556 3.81534 20.4643 3.81123C20.9677 3.81629 21.4504 3.61101 21.7959 3.2449C22.5451 2.51383 23.7406 2.51383 24.4898 3.2449L26.7857 5.54082C27.5168 6.28998 27.5168 7.48553 26.7857 8.2347C26.2407 8.7757 26.0755 9.59179 26.367 10.3022ZM24.1837 18.8418C24.7812 17.3851 26.1494 16.39 27.7194 16.2704L27.6735 13.7602C26.1205 13.624 24.7738 12.6317 24.1837 11.1888C23.6057 9.74247 23.8704 8.09543 24.8724 6.90306L23.1122 5.14286C22.3658 5.76798 21.4226 6.10948 20.449 6.10714C18.2799 6.10183 16.4673 4.45462 16.2551 2.29592H13.7449C13.5396 4.45806 11.7229 6.10897 9.55102 6.10714C8.57739 6.10948 7.6342 5.76798 6.88776 5.14286L5.17347 6.90306C6.15999 8.10453 6.40692 9.75074 5.81633 11.1888C5.22623 12.6317 3.87948 13.624 2.32653 13.7602V16.2704C3.87948 16.4066 5.22623 17.3989 5.81633 18.8418C6.39435 20.2882 6.12964 21.9352 5.12755 23.1276L6.88776 24.8878C7.6342 24.2626 8.57739 23.9211 9.55102 23.9235C11.7201 23.9288 13.5327 25.576 13.7449 27.7347H16.2551C16.4465 25.5656 18.2715 23.9071 20.449 23.9235C21.4226 23.9211 22.3658 24.2626 23.1122 24.8878L24.8265 23.1276C23.84 21.9261 23.5931 20.2799 24.1837 18.8418Z" fill="black"/>
<path fill-rule="evenodd" clip-rule="evenodd" d="M9.70408 15.0153C9.70408 12.0905 12.0751 9.71939 15 9.71939C16.4046 9.71939 17.7516 10.2774 18.7448 11.2705C19.738 12.2637 20.2959 13.6107 20.2959 15.0153C20.2959 17.9402 17.9249 20.3112 15 20.3112C12.0751 20.3112 9.70408 17.9402 9.70408 15.0153ZM11.9388 15.0153C11.9388 16.706 13.3093 18.0765 15 18.0765C16.6907 18.0765 18.0612 16.706 18.0612 15.0153C18.0612 13.3246 16.6907 11.9541 15 11.9541C13.3093 11.9541 11.9388 13.3246 11.9388 15.0153Z" fill="black"/>
</svg>
