<svg width="24" height="30" viewBox="0 0 24 30" fill="none" xmlns="http://www.w3.org/2000/svg">
<path fill-rule="evenodd" clip-rule="evenodd" d="M23.504 22.065L23.8682 23.775C24.2134 25.2534 23.8726 26.8069 22.9389 28.0112C22.0052 29.2155 20.5761 29.9449 19.042 30H4.95799C3.42389 29.9449 1.99483 29.2155 1.06113 28.0112C0.127421 26.8069 -0.213387 25.2534 0.131784 23.775L0.496026 22.065C0.914957 19.7502 2.92828 18.0491 5.30705 18H18.6929C21.0717 18.0491 23.085 19.7502 23.504 22.065ZM19.042 27.735C19.8127 27.7262 20.5379 27.3733 21.015 26.775V26.79C21.6003 26.0643 21.8284 25.1187 21.6372 24.21L21.273 22.5C21.0709 21.2328 19.99 20.2839 18.6929 20.235H5.30706C4.01 20.2839 2.92911 21.2328 2.72701 22.5L2.36277 24.21C2.17633 25.1139 2.40415 26.053 2.98502 26.775C3.46207 27.3733 4.18733 27.7262 4.95799 27.735H19.042Z" fill="#FF544A"/>
<path fill-rule="evenodd" clip-rule="evenodd" d="M12.7588 15H11.2411C7.88838 15 5.17044 12.3137 5.17044 9.00001V5.04002C5.16639 3.7021 5.70235 2.41784 6.65955 1.47179C7.61675 0.525736 8.91615 -0.00397727 10.2698 2.24875e-05H13.7301C15.0838 -0.00397727 16.3832 0.525736 17.3404 1.47179C18.2976 2.41784 18.8336 3.7021 18.8295 5.04002V9.00001C18.8295 12.3137 16.1116 15 12.7588 15ZM10.2698 2.25002C8.7108 2.25002 7.44695 3.49914 7.44695 5.04002V9.00001C7.44695 11.0711 9.14567 12.75 11.2411 12.75H12.7588C14.8543 12.75 16.553 11.0711 16.553 9.00001V5.04002C16.553 4.30006 16.2556 3.59042 15.7262 3.06719C15.1968 2.54396 14.4788 2.25002 13.7301 2.25002H10.2698Z" fill="#FF544A"/>
</svg>
