<svg width="32" height="32" viewBox="0 0 20 20" fill="none" xmlns="http://www.w3.org/2000/svg">
<path d="M0.111224 8.30873C0.362939 7.43447 0.8394 6.70855 1.54285 6.13544C2.24631 5.56234 3.11158 5.423 4.13642 5.71966C4.79942 5.89946 5.33207 6.19388 5.73436 6.60292C6.13666 7.01195 6.494 7.41649 6.80864 7.81654C7.12104 8.21659 7.46266 8.49078 7.82674 8.63686L8.24027 8.293C8.14588 7.85924 7.92114 7.46594 7.56829 7.11309C7.21319 6.76024 6.86483 6.36244 6.51872 5.91969C6.17262 5.47694 5.95686 4.92182 5.87146 4.24983C5.75459 3.19802 6.02878 2.35297 6.69627 1.70571C7.36377 1.06069 8.15038 0.701094 9.05835 0.62468C9.99554 0.546019 10.8451 0.770765 11.6115 1.29442C12.3778 1.82033 12.7734 2.61143 12.8049 3.66998C12.8318 4.34647 12.7195 4.93081 12.4655 5.42075C12.2115 5.91295 11.9486 6.36244 11.6721 6.76923C11.3957 7.17602 11.2339 7.60079 11.1822 8.04803L11.5598 8.32671C11.9239 8.11995 12.2295 7.79182 12.4722 7.34458C12.715 6.89733 12.9936 6.43885 13.3083 5.97138C13.6229 5.50391 14.0927 5.12634 14.7152 4.83866C15.6771 4.37569 16.5604 4.36894 17.3649 4.81619C18.1673 5.26568 18.7516 5.90171 19.1157 6.72428C19.4843 7.60753 19.536 8.48628 19.2708 9.36279C19.0056 10.2393 18.3718 10.8663 17.3739 11.2439C16.7739 11.4709 16.1985 11.5338 15.6434 11.4327C15.0905 11.3316 14.5781 11.2124 14.1106 11.0754C13.6409 10.9383 13.2072 10.9293 12.8049 11.0529L12.6723 11.5945C13.0161 11.8305 13.4274 11.9878 13.9039 12.0665C14.3803 12.1451 14.877 12.2643 15.3917 12.4283C15.9063 12.5924 16.3896 12.9183 16.8435 13.4127C17.5852 14.1746 17.8684 15.0129 17.6953 15.9254C17.52 16.8401 17.0908 17.5885 16.403 18.1773C15.7176 18.7954 14.904 19.1123 13.9645 19.1325C13.0229 19.1527 12.225 18.7639 11.5688 17.9638C11.1687 17.4087 10.9237 16.8536 10.8338 16.3029C10.7439 15.7501 10.6923 15.2264 10.6788 14.7252C10.6653 14.2263 10.5417 13.8083 10.3079 13.4756L9.91238 13.5093C9.73708 13.8779 9.68539 14.3094 9.75506 14.8039C9.82473 15.2983 9.86968 15.8265 9.88766 16.3838C9.90564 16.9435 9.74832 17.5301 9.4157 18.1459C8.90103 19.0448 8.18634 19.5595 7.26937 19.6944C6.35241 19.8314 5.49164 19.6516 4.6848 19.1595C3.90943 18.6942 3.36779 18.0245 3.05989 17.1525C2.74974 16.2805 2.88459 15.4085 3.45993 14.5342C3.82402 13.9723 4.25553 13.57 4.74997 13.3206C5.24442 13.0733 5.73436 12.8621 6.22206 12.689C6.70751 12.516 7.08508 12.271 7.35253 11.9541L7.14127 11.5293C6.72324 11.4754 6.28948 11.5563 5.8355 11.7721C5.38151 11.9856 4.89156 12.1901 4.36116 12.3811C3.83077 12.5722 3.23744 12.6081 2.58118 12.4868C1.53162 12.28 0.805688 11.7676 0.398898 10.945C-0.00789122 10.1247 -0.104532 9.25042 0.113471 8.31773L0.111224 8.30873Z" fill="#FF544A"/>
</svg>
